<?xml version="1.0" encoding="UTF-8"?>
<svg xmlns="http://www.w3.org/2000/svg" viewBox="0 0 24 24">
    <path d="M 7 2 L 7 3 L 6 3 L 6 5 L 7 5 L 7 7 L 6 7 L 6 9 L 7 9 L 7 11 L 6 11 L 6 13 L 7 13 L 7 15 L 6 15 L 6 17 L 7 17 L 7 19 L 6 19 L 6 21 L 7 21 L 7 22 L 9 22 L 9 2 L 7 2 z M 15 2 L 15 3 L 10 3 L 10 5 L 15 5 L 15 7 L 10 7 L 10 9 L 15 9 L 15 11 L 10 11 L 10 13 L 15 13 L 15 15 L 10 15 L 10 17 L 15 17 L 15 19 L 10 19 L 10 21 L 15 21 L 15 22 L 17 22 L 17 21 L 18 21 L 18 19 L 17 19 L 17 17 L 18 17 L 18 15 L 17 15 L 17 13 L 18 13 L 18 11 L 17 11 L 17 9 L 18 9 L 18 7 L 17 7 L 17 5 L 18 5 L 18 3 L 17 3 L 17 2 L 15 2 z"/>
</svg>